<svg xmlns="http://www.w3.org/2000/svg" xml:space="preserve" width="800" height="800" viewBox="0 0 512 512">
  <path d="m229.757 177.638 49.066 28.33 1.244.773 49.154 28.377c11.547 6.637 15.529 21.376 8.895 32.925a24.014 24.014 0 0 1-9.184 9.062l-50.129 28.942.021.043-50.485 29.149c-11.551 6.689-26.336 2.748-33.023-8.802a24.058 24.058 0 0 1-3.258-12.11h-.052V197.73c0-13.376 10.844-24.223 24.221-24.223a24.037 24.037 0 0 1 13.53 4.131zm271.576 78.364c0-135.495-109.84-245.334-245.334-245.334S10.666 120.507 10.666 256.002s109.839 245.334 245.332 245.334c135.495.001 245.335-109.84 245.335-245.334z" style="fill:#abb8b9"/>
  <path d="m278.823 205.967-49.066-28.33a24.068 24.068 0 0 0-13.532-4.132c-13.377 0-24.221 10.847-24.221 24.223V314.325h.052a24.04 24.04 0 0 0 3.258 12.11c6.689 11.55 21.473 15.49 33.023 8.802l50.485-29.149-.021-.043 50.129-28.942a24.007 24.007 0 0 0 9.184-9.062c6.634-11.55 2.652-26.288-8.895-32.925l-49.154-28.377-1.242-.772z" style="fill:#d12d4e"/>
  <path d="M256 0C114.841 0 .001 114.842.001 256.002.001 397.16 114.841 512 256 512c141.158 0 255.999-114.84 255.999-255.998C512.001 114.842 397.159 0 256 0zm0 490.665c-129.395 0-234.664-105.269-234.664-234.663C21.336 126.607 126.605 21.335 256 21.335c129.394 0 234.664 105.271 234.664 234.667.001 129.394-105.27 234.663-234.664 234.663z" style="fill:#000003"/>
  <path d="M270.396 85.941c5.872.498 11.033-3.86 11.53-9.731.497-5.87-3.86-11.032-9.731-11.528A193.17 193.17 0 0 0 256 63.997c-105.87 0-192.001 86.133-192.001 192.005 0 5.892 4.775 10.668 10.668 10.668 5.892 0 10.668-4.776 10.668-10.668 0-94.108 76.561-170.67 170.666-170.67 4.773 0 9.617.205 14.395.609zM437.333 245.334c-5.891 0-10.668 4.776-10.668 10.668 0 94.105-76.562 170.665-170.667 170.665-4.822 0-9.663-.205-14.388-.608-5.878-.5-11.036 3.851-11.536 9.721-.501 5.87 3.851 11.036 9.721 11.537a191.61 191.61 0 0 0 16.203.686c105.87 0 192.002-86.131 192.002-192 .001-5.892-4.776-10.669-10.667-10.669zM299.525 90.979l.625.164c.931.252 1.867.372 2.787.372 4.701 0 9.007-3.132 10.292-7.889 1.535-5.687-1.829-11.543-7.517-13.081a78.873 78.873 0 0 0-.925-.244c-5.707-1.453-11.516 1.997-12.969 7.706-1.453 5.712 1.998 11.518 7.707 12.972zM212.584 421.054l-.886-.234c-5.706-1.455-11.517 1.997-12.969 7.706-1.454 5.709 1.996 11.516 7.706 12.97l.662.175c.92.244 1.842.362 2.75.362 4.716 0 9.031-3.153 10.302-7.927 1.515-5.694-1.872-11.537-7.565-13.052zM233.672 344.476l50.485-29.149c.299-.173.586-.357.862-.554l49.175-28.391a34.746 34.746 0 0 0 13.171-13.023c9.555-16.631 3.801-37.936-12.811-47.483l-48.899-28.228a30.732 30.732 0 0 0-1.498-.92l-48.769-28.157a34.683 34.683 0 0 0-19.163-5.734c-19.238 0-34.888 15.651-34.888 34.89v116.598c0 .426.025.845.074 1.258a34.882 34.882 0 0 0 4.671 16.198c6.209 10.721 17.768 17.381 30.167 17.381a34.816 34.816 0 0 0 17.423-4.686zm-29.126-23.384a13.471 13.471 0 0 1-1.822-6.754c.001-.353-.018-.705-.052-1.053V197.728c0-7.475 6.08-13.555 13.553-13.555 2.718 0 5.329.796 7.554 2.3.21.142.425.275.643.402l49.118 28.359c.228.13.444.273.661.416.175.114.352.224.531.329l49.171 28.386c6.43 3.695 8.656 11.935 4.961 18.364a13.407 13.407 0 0 1-5.112 5.047c-.052.029-.106.059-.158.09l-50.13 28.942c-.299.173-.587.357-.862.555l-49.613 28.644a13.476 13.476 0 0 1-6.742 1.822 13.561 13.561 0 0 1-11.701-6.737z" style="fill:#000003"/>
</svg>
